<svg width="1024" height="1024" xmlns="http://www.w3.org/2000/svg">

 <metadata id="metadata3338">Miscellaneousvisual-studio-onlineimage/svg+xmlAmido LimitedRichard Slater</metadata>
 <g>
  <title>background</title>
  <rect fill="none" id="canvas_background" height="402" width="582" y="-1" x="-1"/>
 </g>
 <g>
  <title>Layer 1</title>
  <g fill="#69207a" transform="matrix(1.2364006,0,0,1.3333334,-94.259301,-170.66663) " id="g4712">
   <path fill="#ffffff" d="m309.17083,127.99996l0.00024,72l51.76316,0l0,167.99999l-232.93421,431.99998l77.64474,96l569.39474,0l77.64474,-96l-232.93422,-431.99998l0,-167.99999l51.76316,0l0,-72l-362.34211,0l-0.00024,0z" id="path4136"/>
   <path fill="#69207a" id="path8" d="m309.17083,127.99996l0.00024,72l51.76316,0l0,167.99999l-232.93421,431.99998l77.64474,96l569.39474,0l77.64474,-96l-232.93422,-431.99998l0,-167.99999l51.76316,0l0,-72l-362.34211,0l-0.00024,0zm103.52656,72l155.28948,0l0,167.99999l77.64473,143.99999l-181.17105,0l-155.28948,335.99999l-77.64473,0l-51.76316,-48l232.93421,-431.99998l0,-167.99999z"/>
  </g>
  <text stroke="#000" transform="matrix(14.107394962019725,0,0,13.261041507285881,-1806.0843343385568,-4341.489354721434) " xml:space="preserve" text-anchor="start" font-family="Helvetica, Arial, sans-serif" font-size="24" id="svg_1" y="393.307072" x="165.05105" stroke-width="0" fill="#ffffff">@</text>
 </g>
</svg>